# xmcd CD database file
#
# Track frame offsets:
#	150
#	19473
#	39665
#	57503
#	83477
#	98596
#	116636
#	138644
#	155009
#
# Disc length: 2315 seconds
#
# Revision: 0
# Processed by: cddbd v1.5.2PL0 Copyright (c) Steve Scherf et al.
# Submitted via: CDex 1.51
#
DISCID=76090909
DTITLE=Gary Norman - Chromatic Jazz
DYEAR=2008
DGENRE=Jazz
TTITLE0=Mr GC
TTITLE1=Christopher Street
TTITLE2=Chromatic Jazz
TTITLE3=The Loop
TTITLE4=Thats for Sure
TTITLE5=Waltz for One
TTITLE6=7 Come #9
TTITLE7=Got the Gig
TTITLE8=Sun Dance
EXTD=YEAR: 2008
EXTT0=
EXTT1=
EXTT2=
EXTT3=
EXTT4=
EXTT5=
EXTT6=
EXTT7=
EXTT8=
PLAYORDER=
